<?xml version="1.0" encoding="UTF-8"?>
<svg id="Layer_1" xmlns="http://www.w3.org/2000/svg" version="1.1" viewBox="0 0 353.1 94.8">
  <!-- Generator: Adobe Illustrator 29.6.1, SVG Export Plug-In . SVG Version: 2.1.1 Build 9)  -->
  <defs>
    <style>
      .st0 {
        fill: #ffb900;
      }

      .st1 {
        fill: #020202;
      }

      .st2 {
        fill: #ffac00;
      }
    </style>
  </defs>
  <circle class="st0" cx="55.1" cy="47.6" r="38.1"/>
  <path class="st1" d="M49.3,37.6c1.5-7,3-13.9,4.5-20.9.3-1.5,1.8-2.8,3.3-2.8h9.3c1.5,0,2.5,1.2,2.2,2.8-1.5,7-2.9,13.9-4.5,20.9h28.7c1.5,0,2.5,1.2,2.1,2.8-.7,3.1-1.3,6.2-2,9.3-.3,1.5-1.8,2.7-3.3,2.7h-28.7c-1.5,7-3,13.9-4.4,20.9-.3,1.5-1.9,2.8-3.3,2.8h-9.3c-1.5,0-2.5-1.2-2.2-2.8,1.5-7,2.9-13.9,4.4-20.9h-28.7c-1.5,0-2.5-1.2-2.2-2.7.6-3.1,1.3-6.2,2-9.3.3-1.5,1.9-2.8,3.3-2.8h28.7Z"/>
  <g>
    <path class="st2" d="M127.6,28.3h7c2.1,0,3.7,1.3,4,3.3,0,0,0,0,0,0,0,.4.1.9.2,1.3.1,1.3.3,2.6.4,4,0,0,0,0,0,0,.1,1.1.2,2.2.3,3.3.1,1.1.3,2.2.4,3.3.1,1.4.3,2.8.5,4.2,0,0,0,0,0,.1.1.6.6,1,1.2,1h.3c.7,0,1.3-.4,1.7-1,0,0,0,0,0-.1.8-1.4,1.5-2.8,2.3-4.2.6-1.1,1.2-2.2,1.8-3.3.6-1.1,1.2-2.2,1.8-3.3,0,0,0,0,0,0,.7-1.3,1.5-2.6,2.2-4,.2-.4.5-.9.7-1.3,0,0,0,0,0,0,1.1-2,3.2-3.3,5.4-3.3h7c.5,0,.8.4.7.9-.8,3.9-1.7,7.9-2.5,11.8-.8,3.9-1.7,7.9-2.5,11.8-.1.5-.6.9-1.1.9h-3.1c-.5,0-.8-.4-.7-.9.6-3,1.3-6,1.9-8.9s1.3-6,1.9-8.9c.1-.6.2-1.2.4-1.8h-2.2c-.6,0-1,.3-1.5,1.3,0,.1-.1.2-.2.3-.8,1.4-1.5,2.8-2.2,4.1,0,0,0,.1-.1.2-1.1,1.9-2.1,3.7-3.1,5.6-1,1.9-2,3.7-3,5.6,0,0,0,.2-.1.2-.9,1.5-2.3,2.5-3.9,3-.4.1-.9.2-1.4.2h-2.6c-.5,0-.9,0-1.3-.2-1.4-.4-2.3-1.5-2.6-3,0,0,0-.2,0-.2-.2-1.9-.5-3.7-.7-5.6-.2-1.9-.4-3.7-.6-5.6,0,0,0-.2,0-.2-.2-1.4-.3-2.7-.5-4.1,0-.1,0-.2,0-.3-.2-.9-.4-1.2-1-1.3h-2.2c-.1.6-.2,1.2-.4,1.8-.6,3-1.3,6-1.9,8.9s-1.3,6-1.9,8.9c-.1.5-.6.9-1.1.9h-3.1c-.5,0-.8-.4-.7-.9.8-3.9,1.7-7.9,2.5-11.8.8-3.9,1.7-7.9,2.5-11.8.1-.5.6-.9,1.1-.9Z"/>
    <path class="st2" d="M193.7,43.9c-1.1-3.1-2.2-6.3-3.3-9.5-.3-.8-1-1.2-1.8-1.2h-2.2c-.9,0-1.7.4-2.3,1.2-2,2.6-4.1,5.3-6.1,7.9-2,2.6-4.1,5.3-6.1,7.9-.8,1-1.6,2.1-2.4,3.1-.2.3-.6.5-.9.5h-3.6c-.3,0-.6-.2-.7-.4,0-.3,0-.6.2-.9,2.8-3.6,5.6-7.2,8.4-10.8,2.8-3.6,5.6-7.2,8.4-10.8,1.2-1.6,3-2.5,4.8-2.5h4.9c1.8,0,3.2.9,3.8,2.5,1.3,3.6,2.5,7.2,3.8,10.8,1.3,3.6,2.5,7.2,3.8,10.8.1.3,0,.6-.2.9-.2.3-.5.4-.9.4h-3.6c-.3,0-.6-.2-.7-.5-1.1-3.2-2.2-6.3-3.3-9.5Z"/>
    <path class="st2" d="M241.2,29.2c-.2,1-.4,2.1-.7,3.1,0,.5-.5.9-1,.9h-23c-.9,0-1.7.7-1.9,1.6,0,.2,0,.4-.1.5-.2.8.2,1.4,1,1.6,2,.4,4.1.7,6.1,1.1h0c4.2.8,8.4,1.5,12.7,2.3,3,.6,4.7,3.2,4,6.4,0,.2,0,.4-.1.5-.8,3.6-4.3,6.5-7.9,6.5h-22.9c-.5,0-.8-.4-.7-.9.2-1,.4-2.1.7-3.1.1-.5.6-.9,1-.9h23c.9,0,1.7-.7,1.9-1.6,0-.2,0-.4.1-.5.2-.8-.2-1.4-1-1.6-2-.4-4.1-.7-6.1-1.1h0c-4.2-.8-8.4-1.5-12.6-2.3-3-.6-4.7-3.2-4-6.4,0-.2,0-.4.1-.5.8-3.6,4.3-6.5,7.9-6.5h22.9c.5,0,.8.4.7.9Z"/>
    <path class="st2" d="M274.7,29.2c-.2,1-.4,2.1-.7,3.1,0,.5-.5.9-1,.9h-23c-.9,0-1.7.7-1.9,1.6,0,.2,0,.4-.1.5-.2.8.2,1.4,1,1.6,2,.4,4.1.7,6.1,1.1h0c4.2.8,8.4,1.5,12.7,2.3,3,.6,4.7,3.2,4,6.4,0,.2,0,.4-.1.5-.8,3.6-4.3,6.5-7.9,6.5h-22.9c-.5,0-.8-.4-.7-.9.2-1,.4-2.1.7-3.1.1-.5.6-.9,1-.9h23c.9,0,1.7-.7,1.9-1.6,0-.2,0-.4.1-.5.2-.8-.2-1.4-1-1.6-2-.4-4.1-.7-6.1-1.1h0c-4.2-.8-8.4-1.5-12.6-2.3-3-.6-4.7-3.2-4-6.4,0-.2,0-.4.1-.5.8-3.6,4.3-6.5,7.9-6.5h22.9c.5,0,.8.4.7.9Z"/>
    <path class="st2" d="M289.4,48.9h9.7c1.4,0,2.8-1.2,3.1-2.6.2-1.1.5-2.3.7-3.4.3-1.1.5-2.3.7-3.4,0,0,0,0,0,0,.4-1.7.7-3.4,1.1-5.1.4-1.7.7-3.4,1.1-5.1.1-.5.6-.9,1.1-.9h3.1c.5,0,.8.4.7.9-.4,1.7-.7,3.4-1.1,5.1-.4,1.7-.7,3.4-1.1,5.1-.3,1.3-.5,2.6-.8,3.9-.3,1.3-.5,2.6-.8,3.9-.4,1.8-1.5,3.4-2.9,4.6-1.4,1.2-3.2,1.9-5,1.9h-19.6c-1.8,0-3.3-.7-4.2-1.9-.9-1.2-1.3-2.8-.9-4.6.3-1.3.5-2.6.8-3.9.3-1.3.6-2.6.8-3.9.4-1.7.7-3.4,1.1-5.1s.7-3.4,1.1-5.1c.1-.5.6-.9,1.1-.9h3.1c.5,0,.8.4.7.9-.4,1.7-.7,3.4-1.1,5.1s-.7,3.4-1.1,5.1c0,0,0,0,0,0-.2,1.1-.5,2.3-.7,3.4-.2,1.1-.5,2.3-.7,3.4-.3,1.4.6,2.6,2,2.6h8Z"/>
    <path class="st2" d="M324,40.7h10.5c1.4,0,2.8-1.2,3.1-2.6.2-.8.3-1.6.5-2.4.3-1.4-.6-2.6-2-2.6h-21.4c-.5,0-.8-.4-.7-.9.2-1,.4-2.1.7-3.1.1-.5.6-.9,1.1-.9h22.4c3.6,0,5.9,2.9,5.1,6.5-.3,1.4-.6,2.9-.9,4.3-.8,3.6-4.3,6.5-7.9,6.5s-3.8,0-5.7,0h-10.2c-1.4,0-2.8,1.2-3.1,2.6-.3,1.5-.6,2.9-.9,4.4,0,0,0,.2,0,.3-.1.5-.6.9-1.1.9h-3.1c-.5,0-.8-.4-.7-.9,0,0,0-.2,0-.3.4-1.8.8-3.6,1.1-5.4.8-3.6,4.3-6.5,7.9-6.5h5.4Z"/>
  </g>
</svg>