<?xml version="1.0" encoding="UTF-8"?>
<svg id="Layer_1" xmlns="http://www.w3.org/2000/svg" version="1.1" viewBox="0 0 353.1 94.8">
  <!-- Generator: Adobe Illustrator 29.6.1, SVG Export Plug-In . SVG Version: 2.1.1 Build 9)  -->
  <defs>
    <style>
      .st0 {
        fill: #ffac00;
      }
    </style>
  </defs>
  <path class="st0" d="M20.8,28.3h10.4c3.2,0,5.6,2,6,5,0,0,0,0,0,0,0,.7.2,1.3.3,2,.2,2,.4,4,.7,5.9,0,0,0,0,0,0,.2,1.6.3,3.3.5,4.9.2,1.6.4,3.3.6,4.9.2,2.1.5,4.2.7,6.3,0,0,0,.1,0,.2.2.9.9,1.4,1.9,1.4h.5c1,0,1.9-.6,2.5-1.4,0,0,0-.1,0-.2,1.1-2.1,2.2-4.2,3.4-6.3.9-1.6,1.7-3.3,2.6-4.9.9-1.7,1.8-3.3,2.7-4.9,0,0,0,0,0,0,1.1-2,2.2-4,3.2-5.9.3-.7.7-1.3,1-2,0,0,0,0,0,0,1.6-3,4.8-5,8-5h10.5c.8,0,1.3.6,1.1,1.4-1.3,5.9-2.5,11.8-3.8,17.7-1.3,5.9-2.5,11.8-3.8,17.7-.2.8-.9,1.4-1.6,1.4h-4.6c-.7,0-1.3-.6-1.1-1.4.9-4.5,1.9-8.9,2.8-13.4.9-4.5,1.9-8.9,2.9-13.4.2-.9.4-1.8.5-2.6h-3.3c-.9.1-1.4.5-2.2,1.9,0,.2-.2.3-.3.5-1.1,2.1-2.3,4.1-3.4,6.2,0,.1-.1.2-.2.4-1.6,2.8-3.1,5.6-4.6,8.4-1.5,2.8-3,5.6-4.5,8.4,0,.1-.1.2-.2.3-1.3,2.2-3.4,3.8-5.8,4.4-.7.2-1.4.3-2,.3h-3.9c-.7,0-1.4,0-2-.3-2-.6-3.5-2.2-3.9-4.4,0-.1,0-.2,0-.3-.4-2.8-.7-5.6-1-8.4-.3-2.8-.7-5.6-.9-8.4,0-.1,0-.2,0-.4-.2-2.1-.5-4.1-.7-6.2,0-.2,0-.4,0-.5-.2-1.4-.6-1.8-1.5-1.9h-3.3c-.2.9-.4,1.8-.5,2.6-.9,4.5-1.9,8.9-2.8,13.4s-1.9,8.9-2.8,13.4c-.2.8-.9,1.4-1.6,1.4h-4.6c-.8,0-1.3-.6-1.1-1.4,1.3-5.9,2.5-11.8,3.8-17.7,1.3-5.9,2.5-11.8,3.8-17.7.2-.8.9-1.4,1.6-1.4Z"/>
  <path class="st0" d="M119.7,51.6c-1.6-4.7-3.3-9.4-4.9-14.1-.4-1.2-1.4-1.8-2.8-1.8h-3.2c-1.3,0-2.5.7-3.4,1.8-3.1,3.9-6.1,7.9-9.2,11.8-3,3.9-6.1,7.9-9.1,11.8-1.2,1.5-2.4,3.1-3.6,4.6-.3.4-.8.7-1.3.7h-5.3c-.5,0-.9-.2-1-.7-.1-.4,0-.9.3-1.3,4.1-5.4,8.3-10.8,12.5-16.2,4.2-5.4,8.3-10.8,12.5-16.2,1.8-2.4,4.5-3.8,7.2-3.8h7.4c2.7,0,4.8,1.4,5.6,3.8,1.9,5.4,3.8,10.8,5.6,16.2,1.9,5.4,3.7,10.8,5.7,16.2.2.4,0,.9-.3,1.3-.3.4-.8.7-1.3.7h-5.3c-.5,0-.9-.3-1-.7-1.6-4.7-3.3-9.4-5-14.1Z"/>
  <path class="st0" d="M190.7,29.7c-.3,1.5-.7,3.1-1,4.6-.1.7-.8,1.3-1.5,1.4h-34.5c-1.3,0-2.6,1.1-2.9,2.4,0,.3,0,.5-.1.8-.3,1.2.3,2.1,1.4,2.3,3.1.6,6.1,1.1,9.1,1.7h0c6.3,1.1,12.6,2.3,18.9,3.5,4.5.8,7,4.8,6,9.6,0,.3-.1.5-.2.8-1.1,5.4-6.4,9.7-11.8,9.7h-34.3c-.7,0-1.3-.6-1.1-1.4.3-1.5.7-3.1,1-4.6.1-.7.8-1.3,1.5-1.4h34.5c1.3,0,2.6-1.1,2.9-2.4,0-.3.1-.5.2-.8.2-1.2-.3-2.1-1.5-2.3-3-.5-6.1-1.1-9.1-1.7h0c-6.3-1.1-12.6-2.3-18.9-3.5-4.5-.8-7-4.8-6-9.6,0-.3,0-.5.1-.8,1.1-5.4,6.5-9.7,11.8-9.7h34.3c.7,0,1.3.6,1.1,1.4Z"/>
  <path class="st0" d="M240.7,29.7c-.3,1.5-.7,3.1-1,4.6-.1.7-.8,1.3-1.5,1.4h-34.5c-1.3,0-2.6,1.1-2.9,2.4,0,.3,0,.5-.1.8-.3,1.2.3,2.1,1.4,2.3,3.1.6,6.1,1.1,9.1,1.7h0c6.3,1.1,12.6,2.3,18.9,3.5,4.5.8,7,4.8,6,9.6,0,.3-.1.5-.2.8-1.1,5.4-6.4,9.7-11.8,9.7h-34.3c-.7,0-1.3-.6-1.1-1.4.3-1.5.7-3.1,1-4.6.1-.7.8-1.3,1.5-1.4h34.5c1.3,0,2.6-1.1,2.9-2.4,0-.3.1-.5.2-.8.2-1.2-.3-2.1-1.5-2.3-3-.5-6.1-1.1-9.1-1.7h0c-6.3-1.1-12.6-2.3-18.9-3.5-4.5-.8-7-4.8-6-9.6,0-.3,0-.5.1-.8,1.1-5.4,6.5-9.7,11.8-9.7h34.3c.7,0,1.3.6,1.1,1.4Z"/>
  <path class="st0" d="M262.8,59.1h14.4c2.1,0,4.2-1.7,4.7-3.8.4-1.7.7-3.4,1.1-5.1.4-1.7.8-3.4,1.1-5.1,0,0,0,0,0,0,.6-2.6,1.1-5.1,1.7-7.7.6-2.6,1.1-5.1,1.6-7.7.2-.8.8-1.4,1.6-1.4h4.6c.7,0,1.3.6,1.1,1.4-.5,2.6-1.1,5.1-1.6,7.7-.6,2.6-1.1,5.1-1.7,7.7-.4,1.9-.8,3.9-1.2,5.8-.4,1.9-.8,3.9-1.2,5.8-.6,2.7-2.3,5.1-4.4,6.9-2.1,1.8-4.8,2.9-7.5,2.9h-29.3c-2.7,0-5-1.1-6.3-2.9-1.4-1.8-1.9-4.2-1.3-6.9.4-1.9.8-3.9,1.2-5.8.4-1.9.8-3.9,1.2-5.8.6-2.6,1.1-5.1,1.7-7.7s1.1-5.1,1.6-7.7c.2-.8.9-1.4,1.6-1.4h4.7c.7,0,1.2.6,1.1,1.4-.5,2.6-1.1,5.1-1.6,7.7s-1.1,5.1-1.6,7.7c0,0,0,0,0,0-.4,1.7-.7,3.4-1.1,5.1-.4,1.7-.7,3.4-1.1,5.1-.5,2.1.9,3.8,3,3.8h12Z"/>
  <path class="st0" d="M314.4,46.9h15.6c2.1,0,4.2-1.7,4.7-3.8.3-1.2.5-2.3.8-3.5.4-2.1-.9-3.8-3-3.8h-32.1c-.8,0-1.2-.6-1.1-1.4.3-1.5.7-3.1,1-4.6.1-.8.9-1.4,1.7-1.4h33.5c5.4,0,8.8,4.4,7.7,9.7-.5,2.2-.9,4.3-1.4,6.5-1.1,5.3-6.4,9.7-11.8,9.7s-5.7,0-8.5,0h-15.2c-2.1,0-4.2,1.7-4.6,3.8-.5,2.2-.9,4.4-1.4,6.6,0,.1,0,.3,0,.4-.1.8-.9,1.4-1.7,1.4h-4.6c-.7,0-1.3-.6-1.1-1.4,0-.1,0-.3,0-.4.6-2.7,1.1-5.4,1.7-8,1.1-5.3,6.5-9.7,11.8-9.7h8Z"/>
</svg>