<?xml version="1.0" encoding="UTF-8"?>
<svg id="Layer_1" xmlns="http://www.w3.org/2000/svg" version="1.1" viewBox="0 0 353.1 94.8">
  <!-- Generator: Adobe Illustrator 29.6.1, SVG Export Plug-In . SVG Version: 2.1.1 Build 9)  -->
  <defs>
    <style>
      .st0 {
        fill: #9aa1ad;
      }

      .st1 {
        fill: #f5bc1e;
      }

      .st2 {
        fill: #020202;
      }
    </style>
  </defs>
  <circle class="st1" cx="52.7" cy="47.5" r="38.1"/>
  <path class="st2" d="M46.9,40.1c1.5-7,3-13.9,4.5-20.9.3-1.5,1.8-2.8,3.3-2.8h9.3c1.5,0,2.5,1.2,2.2,2.8-1.5,7-2.9,13.9-4.5,20.9h28.7c1.5,0,2.5,1.2,2.1,2.8-.7,3.1-1.3,6.2-2,9.3-.3,1.5-1.8,2.7-3.3,2.7h-28.7c-1.5,7-3,13.9-4.4,20.9-.3,1.5-1.9,2.8-3.3,2.8h-9.3c-1.5,0-2.5-1.2-2.2-2.8,1.5-7,2.9-13.9,4.4-20.9H15c-1.5,0-2.5-1.2-2.2-2.7.6-3.1,1.3-6.2,2-9.3.3-1.5,1.9-2.8,3.3-2.8h28.7Z"/>
  <g>
    <path class="st1" d="M122.7,18.5h7c2.1,0,3.7,1.3,4,3.3,0,0,0,0,0,0,0,.4.1.9.2,1.3.1,1.3.3,2.6.4,4,0,0,0,0,0,0,.1,1.1.2,2.2.3,3.3.1,1.1.3,2.2.4,3.3.1,1.4.3,2.8.5,4.2,0,0,0,0,0,.1.1.6.6,1,1.2,1h.3c.7,0,1.3-.4,1.7-1,0,0,0,0,0-.1.8-1.4,1.5-2.8,2.3-4.2.6-1.1,1.2-2.2,1.8-3.3.6-1.1,1.2-2.2,1.8-3.3,0,0,0,0,0,0,.7-1.3,1.5-2.6,2.2-4,.2-.4.5-.9.7-1.3,0,0,0,0,0,0,1.1-2,3.2-3.3,5.4-3.3h7c.5,0,.8.4.7.9-.8,3.9-1.7,7.9-2.5,11.8-.8,3.9-1.7,7.9-2.5,11.8-.1.5-.6.9-1.1.9h-3.1c-.5,0-.8-.4-.7-.9.6-3,1.3-6,1.9-8.9s1.3-6,1.9-8.9c.1-.6.2-1.2.4-1.8h-2.2c-.6,0-1,.3-1.5,1.3,0,.1-.1.2-.2.3-.8,1.4-1.5,2.8-2.2,4.1,0,0,0,.1-.1.2-1.1,1.9-2.1,3.7-3.1,5.6-1,1.9-2,3.7-3,5.6,0,0,0,.2-.1.2-.9,1.5-2.3,2.5-3.9,3-.4.1-.9.2-1.4.2h-2.6c-.5,0-.9,0-1.3-.2-1.4-.4-2.3-1.5-2.6-3,0,0,0-.2,0-.2-.2-1.9-.5-3.7-.7-5.6-.2-1.9-.4-3.7-.6-5.6,0,0,0-.2,0-.2-.2-1.4-.3-2.7-.5-4.1,0-.1,0-.2,0-.3-.2-.9-.4-1.2-1-1.3h-2.2c-.1.6-.2,1.2-.4,1.8-.6,3-1.3,6-1.9,8.9s-1.3,6-1.9,8.9c-.1.5-.6.9-1.1.9h-3.1c-.5,0-.8-.4-.7-.9.8-3.9,1.7-7.9,2.5-11.8.8-3.9,1.7-7.9,2.5-11.8.1-.5.6-.9,1.1-.9Z"/>
    <path class="st1" d="M188.9,34.1c-1.1-3.1-2.2-6.3-3.3-9.5-.3-.8-1-1.2-1.8-1.2h-2.2c-.9,0-1.7.4-2.3,1.2-2,2.6-4.1,5.3-6.1,7.9-2,2.6-4.1,5.3-6.1,7.9-.8,1-1.6,2.1-2.4,3.1-.2.3-.6.5-.9.5h-3.6c-.3,0-.6-.2-.7-.4,0-.3,0-.6.2-.9,2.8-3.6,5.6-7.2,8.4-10.8,2.8-3.6,5.6-7.2,8.4-10.8,1.2-1.6,3-2.5,4.8-2.5h4.9c1.8,0,3.2.9,3.8,2.5,1.3,3.6,2.5,7.2,3.8,10.8,1.3,3.6,2.5,7.2,3.8,10.8.1.3,0,.6-.2.9-.2.3-.5.4-.9.4h-3.6c-.3,0-.6-.2-.7-.5-1.1-3.2-2.2-6.3-3.3-9.5Z"/>
    <path class="st1" d="M236.4,19.4c-.2,1-.4,2.1-.7,3.1,0,.5-.5.9-1,.9h-23c-.9,0-1.7.7-1.9,1.6,0,.2,0,.4-.1.5-.2.8.2,1.4,1,1.6,2,.4,4.1.7,6.1,1.1h0c4.2.8,8.4,1.5,12.7,2.3,3,.6,4.7,3.2,4,6.4,0,.2,0,.4-.1.5-.8,3.6-4.3,6.5-7.9,6.5h-22.9c-.5,0-.8-.4-.7-.9.2-1,.4-2.1.7-3.1.1-.5.6-.9,1-.9h23c.9,0,1.7-.7,1.9-1.6,0-.2,0-.4.1-.5.2-.8-.2-1.4-1-1.6-2-.4-4.1-.7-6.1-1.1h0c-4.2-.8-8.4-1.5-12.6-2.3-3-.6-4.7-3.2-4-6.4,0-.2,0-.4.1-.5.8-3.6,4.3-6.5,7.9-6.5h22.9c.5,0,.8.4.7.9Z"/>
    <path class="st1" d="M269.8,19.4c-.2,1-.4,2.1-.7,3.1,0,.5-.5.9-1,.9h-23c-.9,0-1.7.7-1.9,1.6,0,.2,0,.4-.1.5-.2.8.2,1.4,1,1.6,2,.4,4.1.7,6.1,1.1h0c4.2.8,8.4,1.5,12.7,2.3,3,.6,4.7,3.2,4,6.4,0,.2,0,.4-.1.5-.8,3.6-4.3,6.5-7.9,6.5h-22.9c-.5,0-.8-.4-.7-.9.2-1,.4-2.1.7-3.1.1-.5.6-.9,1-.9h23c.9,0,1.7-.7,1.9-1.6,0-.2,0-.4.1-.5.2-.8-.2-1.4-1-1.6-2-.4-4.1-.7-6.1-1.1h0c-4.2-.8-8.4-1.5-12.6-2.3-3-.6-4.7-3.2-4-6.4,0-.2,0-.4.1-.5.8-3.6,4.3-6.5,7.9-6.5h22.9c.5,0,.8.4.7.9Z"/>
    <path class="st1" d="M284.6,39.1h9.7c1.4,0,2.8-1.2,3.1-2.6.2-1.1.5-2.3.7-3.4.3-1.1.5-2.3.7-3.4,0,0,0,0,0,0,.4-1.7.7-3.4,1.1-5.1.4-1.7.7-3.4,1.1-5.1.1-.5.6-.9,1.1-.9h3.1c.5,0,.8.4.7.9-.4,1.7-.7,3.4-1.1,5.1-.4,1.7-.7,3.4-1.1,5.1-.3,1.3-.5,2.6-.8,3.9-.3,1.3-.5,2.6-.8,3.9-.4,1.8-1.5,3.4-2.9,4.6-1.4,1.2-3.2,1.9-5,1.9h-19.6c-1.8,0-3.3-.7-4.2-1.9-.9-1.2-1.3-2.8-.9-4.6.3-1.3.5-2.6.8-3.9.3-1.3.6-2.6.8-3.9.4-1.7.7-3.4,1.1-5.1s.7-3.4,1.1-5.1c.1-.5.6-.9,1.1-.9h3.1c.5,0,.8.4.7.9-.4,1.7-.7,3.4-1.1,5.1s-.7,3.4-1.1,5.1c0,0,0,0,0,0-.2,1.1-.5,2.3-.7,3.4-.2,1.1-.5,2.3-.7,3.4-.3,1.4.6,2.6,2,2.6h8Z"/>
    <path class="st1" d="M319.1,30.9h10.5c1.4,0,2.8-1.2,3.1-2.6.2-.8.3-1.6.5-2.4.3-1.4-.6-2.6-2-2.6h-21.4c-.5,0-.8-.4-.7-.9.2-1,.4-2.1.7-3.1.1-.5.6-.9,1.1-.9h22.4c3.6,0,5.9,2.9,5.1,6.5-.3,1.4-.6,2.9-.9,4.3-.8,3.6-4.3,6.5-7.9,6.5s-3.8,0-5.7,0h-10.2c-1.4,0-2.8,1.2-3.1,2.6-.3,1.5-.6,2.9-.9,4.4,0,0,0,.2,0,.3-.1.5-.6.9-1.1.9h-3.1c-.5,0-.8-.4-.7-.9,0,0,0-.2,0-.3.4-1.8.8-3.6,1.1-5.4.8-3.6,4.3-6.5,7.9-6.5h5.4Z"/>
  </g>
  <g>
    <path class="st0" d="M115.5,68.8l5.9-18.1h3.8l5.9,18.1h-2.7l-5.4-16.5h.7l-5.4,16.5h-2.7ZM118.5,64.7v-2.5h9.5v2.5h-9.5Z"/>
    <path class="st0" d="M132.8,74.9v-19.6h2.3v9.8h.3v9.9h-2.6ZM139.2,69.2c-1.3,0-2.4-.3-3.3-1-.9-.6-1.5-1.5-2-2.6-.5-1.1-.7-2.3-.7-3.7s.2-2.6.7-3.7c.4-1.1,1.1-1.9,2-2.6.9-.6,2-.9,3.2-.9s2.4.3,3.3.9c.9.6,1.6,1.5,2.1,2.6s.8,2.3.8,3.7-.2,2.6-.7,3.7-1.2,1.9-2.1,2.6c-.9.6-2,.9-3.3.9ZM138.8,66.8c.8,0,1.5-.2,2.1-.6.5-.4,1-1,1.2-1.7.3-.7.4-1.5.4-2.4s-.1-1.7-.4-2.4c-.3-.7-.7-1.3-1.3-1.7s-1.3-.6-2.2-.6-1.5.2-2,.6c-.5.4-.9,1-1.2,1.7s-.4,1.6-.4,2.5.1,1.8.4,2.5c.3.7.7,1.3,1.2,1.7.5.4,1.2.6,2.1.6Z"/>
    <path class="st0" d="M147.6,74.9v-19.6h2.3v9.8h.3v9.9h-2.6ZM154,69.2c-1.3,0-2.4-.3-3.3-1-.9-.6-1.5-1.5-2-2.6-.5-1.1-.7-2.3-.7-3.7s.2-2.6.7-3.7c.4-1.1,1.1-1.9,2-2.6.9-.6,2-.9,3.2-.9s2.4.3,3.3.9c.9.6,1.6,1.5,2.1,2.6s.8,2.3.8,3.7-.2,2.6-.7,3.7-1.2,1.9-2.1,2.6c-.9.6-2,.9-3.3.9ZM153.6,66.8c.8,0,1.5-.2,2.1-.6.5-.4,1-1,1.2-1.7.3-.7.4-1.5.4-2.4s-.1-1.7-.4-2.4c-.3-.7-.7-1.3-1.3-1.7s-1.3-.6-2.2-.6-1.5.2-2,.6c-.5.4-.9,1-1.2,1.7s-.4,1.6-.4,2.5.1,1.8.4,2.5c.3.7.7,1.3,1.2,1.7.5.4,1.2.6,2.1.6Z"/>
    <path class="st0" d="M167,74.9v-19.6h2.3v9.8h.3v9.9h-2.6ZM173.4,69.2c-1.3,0-2.4-.3-3.3-1-.9-.6-1.5-1.5-2-2.6-.5-1.1-.7-2.3-.7-3.7s.2-2.6.7-3.7c.4-1.1,1.1-1.9,2-2.6.9-.6,2-.9,3.2-.9s2.4.3,3.3.9c.9.6,1.6,1.5,2.1,2.6.5,1.1.8,2.3.8,3.7s-.2,2.6-.7,3.7c-.5,1.1-1.2,1.9-2.1,2.6-.9.6-2,.9-3.3.9ZM173,66.8c.8,0,1.5-.2,2.1-.6.5-.4,1-1,1.2-1.7.3-.7.4-1.5.4-2.4s-.1-1.7-.4-2.4c-.3-.7-.7-1.3-1.3-1.7s-1.3-.6-2.2-.6-1.5.2-2,.6c-.5.4-.9,1-1.2,1.7s-.4,1.6-.4,2.5.1,1.8.4,2.5c.3.7.7,1.3,1.2,1.7.5.4,1.2.6,2.1.6Z"/>
    <path class="st0" d="M185.7,69.2c-1,0-1.8-.2-2.5-.6s-1.2-.9-1.5-1.5c-.3-.6-.5-1.3-.5-2s.1-1.3.4-1.8c.2-.5.6-1,1.1-1.3.5-.4,1.1-.7,1.8-.9.6-.2,1.3-.3,2.1-.5.8-.1,1.6-.3,2.4-.4.8-.1,1.7-.2,2.5-.4l-1,.5c0-1.1-.2-1.9-.7-2.4-.5-.5-1.3-.8-2.4-.8s-1.4.2-2,.5c-.6.3-1,.9-1.2,1.6l-2.5-.8c.3-1.2,1-2.1,1.9-2.8.9-.7,2.2-1,3.8-1s2.3.2,3.2.6c.9.4,1.6,1.1,2,2,.2.4.4.9.4,1.4,0,.5,0,1,0,1.6v8.4h-2.3v-3.1l.5.4c-.6,1-1.3,1.8-2.1,2.3s-1.9.8-3.2.8ZM186.1,67.1c.7,0,1.4-.1,1.9-.4.5-.3,1-.6,1.3-1s.5-.8.6-1.3c.1-.4.2-.9.2-1.4,0-.5,0-.9,0-1.2l.9.3c-.8.1-1.6.2-2.3.3-.7.1-1.3.2-1.8.3-.5,0-1,.2-1.5.3-.4.1-.7.3-1,.5-.3.2-.5.4-.7.6-.2.3-.2.6-.2.9s0,.7.3,1c.2.3.4.5.8.7.4.2.8.3,1.4.3Z"/>
    <path class="st0" d="M195.7,68.8v-13.6h2.3v3.3l-.3-.4c.2-.4.4-.8.7-1.2.3-.4.6-.7.9-.9.3-.3.7-.4,1.2-.6.4-.1.9-.2,1.3-.3.4,0,.9,0,1.3,0v2.5c-.4-.1-.9-.2-1.5-.1-.5,0-1,.2-1.5.5-.4.3-.8.6-1,1-.2.4-.4.8-.5,1.3-.1.5-.2,1-.2,1.5v6.9h-2.7Z"/>
    <path class="st0" d="M208.4,69.2c-1,0-1.8-.2-2.5-.6s-1.2-.9-1.5-1.5c-.3-.6-.5-1.3-.5-2s.1-1.3.4-1.8c.2-.5.6-1,1.1-1.3.5-.4,1.1-.7,1.8-.9.6-.2,1.3-.3,2.1-.5.8-.1,1.6-.3,2.4-.4.8-.1,1.7-.2,2.5-.4l-1,.5c0-1.1-.2-1.9-.7-2.4-.5-.5-1.3-.8-2.4-.8s-1.4.2-2,.5c-.6.3-1,.9-1.2,1.6l-2.5-.8c.3-1.2,1-2.1,1.9-2.8.9-.7,2.2-1,3.8-1s2.3.2,3.2.6c.9.4,1.6,1.1,2,2,.2.4.4.9.4,1.4,0,.5,0,1,0,1.6v8.4h-2.3v-3.1l.5.4c-.6,1-1.3,1.8-2.1,2.3s-1.9.8-3.2.8ZM208.9,67.1c.7,0,1.4-.1,1.9-.4.5-.3,1-.6,1.3-1s.5-.8.6-1.3c.1-.4.2-.9.2-1.4,0-.5,0-.9,0-1.2l.9.3c-.8.1-1.6.2-2.3.3-.7.1-1.3.2-1.8.3-.5,0-1,.2-1.5.3-.4.1-.7.3-1,.5-.3.2-.5.4-.7.6-.2.3-.2.6-.2.9s0,.7.3,1c.2.3.4.5.8.7.4.2.8.3,1.4.3Z"/>
    <path class="st0" d="M228.4,69.2c-1.3,0-2.4-.3-3.3-.9-.9-.6-1.6-1.5-2.1-2.6-.5-1.1-.7-2.3-.7-3.7s.3-2.6.8-3.7c.5-1.1,1.2-1.9,2.1-2.6s2-.9,3.3-.9,2.4.3,3.2.9,1.5,1.5,2,2.6c.4,1.1.7,2.3.7,3.7s-.2,2.6-.7,3.7c-.5,1.1-1.1,1.9-2,2.6-.9.6-2,1-3.3,1ZM228.6,75.2c-.7,0-1.4-.1-2.1-.3s-1.3-.6-1.9-1c-.6-.4-1-1-1.4-1.6l2.4-1.2c.3.6.7,1,1.3,1.3.5.3,1.1.4,1.7.4s1.4-.1,1.9-.4.9-.7,1.2-1.2c.3-.5.4-1.2.4-2v-3.8h.3v-10.1h2.3v14c0,.4,0,.7,0,1s0,.7-.1,1c-.2.9-.6,1.7-1.1,2.3s-1.2,1-2.1,1.3-1.8.4-2.8.4ZM228.7,66.8c.9,0,1.6-.2,2.1-.6.5-.4.9-1,1.2-1.7s.4-1.6.4-2.5-.1-1.8-.4-2.5-.7-1.3-1.2-1.7c-.5-.4-1.2-.6-2-.6s-1.6.2-2.2.6c-.6.4-1,1-1.3,1.7-.3.7-.4,1.5-.4,2.4s.1,1.7.4,2.4c.3.7.7,1.3,1.2,1.7.5.4,1.2.6,2.1.6Z"/>
    <path class="st0" d="M238,53v-2.6h2.6v2.6h-2.6ZM238,68.8v-13.6h2.6v13.6h-2.6Z"/>
    <path class="st0" d="M244,68.8v-13.6h2.3v3.9h.3v9.7h-2.6ZM252.1,68.8v-8.4c0-1-.2-1.8-.7-2.3-.5-.6-1.2-.8-2-.8s-1.5.3-2,.9-.8,1.3-.8,2.2l-1.3-.8c0-.9.2-1.7.6-2.4s1-1.2,1.7-1.6c.7-.4,1.6-.6,2.5-.6s1.8.2,2.5.6c.7.4,1.2,1,1.6,1.7s.5,1.6.5,2.5v9.1h-2.6ZM260.3,68.8v-8.5c0-1-.2-1.7-.7-2.3-.5-.5-1.2-.8-2-.8s-1,.1-1.4.3c-.4.2-.8.6-1,1s-.4,1-.4,1.7l-1.3-.6c0-1,.2-1.8.6-2.5.4-.7,1-1.3,1.7-1.7s1.5-.6,2.5-.6c1.5,0,2.6.4,3.4,1.3s1.2,2.1,1.2,3.5v9.1h-2.6Z"/>
    <path class="st0" d="M265.7,68.8v-13.6h2.4v3.9h.3v9.7h-2.7ZM275.2,68.8v-6.7c0-.5,0-1.1-.1-1.6,0-.6-.3-1.1-.5-1.6s-.6-.9-1-1.2c-.4-.3-1-.4-1.8-.4s-.9,0-1.3.2c-.4.2-.8.4-1.1.7-.3.3-.6.8-.7,1.4-.2.6-.3,1.2-.3,2.1l-1.6-.6c0-1.2.2-2.3.7-3.3.5-.9,1.1-1.7,2-2.2.9-.5,1.9-.8,3.1-.8s1.7.2,2.4.5,1.2.7,1.6,1.2c.4.5.7,1,.9,1.6.2.6.4,1.1.4,1.7s.1,1,.1,1.5v7.6h-2.7Z"/>
    <path class="st0" d="M284.5,69.2c-1,0-1.8-.2-2.5-.6s-1.2-.9-1.5-1.5c-.3-.6-.5-1.3-.5-2s.1-1.3.4-1.8c.2-.5.6-1,1.1-1.3.5-.4,1.1-.7,1.8-.9.6-.2,1.3-.3,2.1-.5.8-.1,1.6-.3,2.4-.4.8-.1,1.7-.2,2.5-.4l-1,.5c0-1.1-.2-1.9-.7-2.4-.5-.5-1.3-.8-2.4-.8s-1.4.2-2,.5c-.6.3-1,.9-1.2,1.6l-2.5-.8c.3-1.2,1-2.1,1.9-2.8.9-.7,2.2-1,3.8-1s2.3.2,3.2.6c.9.4,1.6,1.1,2,2,.2.4.4.9.4,1.4,0,.5,0,1,0,1.6v8.4h-2.3v-3.1l.5.4c-.6,1-1.3,1.8-2.1,2.3s-1.9.8-3.2.8ZM285,67.1c.7,0,1.4-.1,1.9-.4.5-.3,1-.6,1.3-1s.5-.8.6-1.3c.1-.4.2-.9.2-1.4,0-.5,0-.9,0-1.2l.9.3c-.8.1-1.6.2-2.3.3-.7.1-1.3.2-1.8.3-.5,0-1,.2-1.5.3-.4.1-.7.3-1,.5-.3.2-.5.4-.7.6-.2.3-.2.6-.2.9s0,.7.3,1c.2.3.4.5.8.7.4.2.8.3,1.4.3Z"/>
    <path class="st0" d="M299.7,69.2c-1.7,0-3-.4-4-1.1-1-.7-1.7-1.8-1.9-3.1l2.7-.4c.2.7.6,1.3,1.2,1.7.6.4,1.4.6,2.3.6s1.5-.2,1.9-.5c.5-.3.7-.8.7-1.4s0-.6-.2-.8c-.2-.2-.5-.4-1-.6-.5-.2-1.3-.4-2.4-.7-1.2-.3-2.1-.6-2.8-1-.7-.3-1.2-.8-1.5-1.2-.3-.5-.4-1-.4-1.7s.2-1.5.7-2.2,1.1-1.1,1.8-1.4c.8-.3,1.7-.5,2.8-.5s2,.2,2.8.5,1.5.8,2,1.4c.5.6.8,1.3.9,2.1l-2.7.5c0-.7-.4-1.2-.9-1.5-.5-.4-1.2-.6-2-.6-.8,0-1.4,0-1.9.4s-.7.7-.7,1.2,0,.6.3.8.6.4,1.1.6c.5.2,1.4.4,2.4.7,1.1.3,2,.6,2.7,1s1.2.8,1.4,1.3c.3.5.4,1.1.4,1.8,0,1.3-.5,2.4-1.5,3.2s-2.3,1.1-4,1.1Z"/>
    <path class="st0" d="M307.8,53v-2.6h2.6v2.6h-2.6ZM307.8,68.8v-13.6h2.6v13.6h-2.6Z"/>
    <path class="st0" d="M319.6,69.2c-1.4,0-2.5-.3-3.5-.9-1-.6-1.8-1.5-2.3-2.5-.5-1.1-.8-2.3-.8-3.7s.3-2.7.8-3.7,1.3-1.9,2.3-2.5c1-.6,2.2-.9,3.5-.9s2.5.3,3.5.9c1,.6,1.8,1.5,2.3,2.5.5,1.1.8,2.3.8,3.7s-.3,2.7-.8,3.7c-.5,1.1-1.3,1.9-2.3,2.5-1,.6-2.2.9-3.5.9ZM319.6,66.7c1.3,0,2.3-.4,2.9-1.3.6-.9,1-2,1-3.4s-.3-2.6-1-3.4-1.6-1.3-2.9-1.3-1.6.2-2.2.6c-.6.4-1,.9-1.3,1.6-.3.7-.4,1.5-.4,2.4,0,1.4.3,2.6,1,3.4.7.9,1.6,1.3,2.9,1.3Z"/>
    <path class="st0" d="M333.5,69.2c-1.7,0-3-.4-4-1.1-1-.7-1.7-1.8-1.9-3.1l2.7-.4c.2.7.6,1.3,1.2,1.7.6.4,1.4.6,2.3.6s1.5-.2,1.9-.5c.5-.3.7-.8.7-1.4s0-.6-.2-.8c-.2-.2-.5-.4-1-.6-.5-.2-1.3-.4-2.4-.7-1.2-.3-2.1-.6-2.8-1-.7-.3-1.2-.8-1.5-1.2-.3-.5-.4-1-.4-1.7s.2-1.5.7-2.2,1.1-1.1,1.8-1.4c.8-.3,1.7-.5,2.8-.5s2,.2,2.8.5,1.5.8,2,1.4c.5.6.8,1.3.9,2.1l-2.7.5c0-.7-.4-1.2-.9-1.5-.5-.4-1.2-.6-2-.6-.8,0-1.4,0-1.9.4s-.7.7-.7,1.2,0,.6.3.8.6.4,1.1.6c.5.2,1.4.4,2.4.7,1.1.3,2,.6,2.7,1s1.2.8,1.4,1.3c.3.5.4,1.1.4,1.8,0,1.3-.5,2.4-1.5,3.2s-2.3,1.1-4,1.1Z"/>
  </g>
</svg>